<svg xmlns="http://www.w3.org/2000/svg" viewBox="0 0 1069.37 276.42"><defs><style>.cls-1{fill:#fff;}.cls-2{fill:#4bbfb2;}</style></defs><title>Asset 1</title><g id="Layer_2" data-name="Layer 2"><g id="Layer_1-2" data-name="Layer 1"><path class="cls-1" d="M269.85,4.5c24.92,2,31,9.57,31,37.87,0,27.49-5.64,34.49-28.84,35l-31.39-1.15v36l-26.86-.41V0ZM263.26,52c11.44.59,12.65-.45,12.65-11,0-11.33-1.21-12.66-12.65-13.41l-22.61-1.5v24.7Z"/><path class="cls-1" d="M381.07,13.43V36.72l-46.91-3.06v16L376.83,52V74.07l-42.67-1.75V89.65l47.12,1.42v23.29l-71.08-1.08V7.74Z"/><path class="cls-1" d="M461.22,47.6c0,15.83-4.58,23.1-15.1,24.48,10,1.8,15.1,7.67,15.1,19.94v23.56L440,115.26V92.85c0-10.71-1.08-11.87-11.86-12.28l-15.7-.6v34.87l-21.65-.33V14.2L436,17.84C456.26,19.46,461.22,25.38,461.22,47.6Zm-30.52,13C440,61.1,441,60,441,50.08c0-9.58-1-10.76-10.25-11.37L412.41,37.5V59.68Z"/><path class="cls-1" d="M515.54,90.29c0-5.32-3.45-7.7-16.63-11.68-23.44-7.17-29.44-13.3-29.44-31,0-22.82,6.94-28,33-25.87,25.37,2.07,31.77,9.23,31.77,35.83L515.1,56.46c0-12.29-1.33-13.68-12.58-14.44s-12.62,0-12.62,7.1c0,4.93,2.65,6.89,12.26,10.06,25.82,8.1,32.55,14.74,32.55,33,0,20.76-6.47,25.79-32.19,25.43-27.42-.39-34.65-7.22-34.65-34l20.47.76c0,11.32,1.47,12.57,13.64,12.91S515.54,97,515.54,90.29Z"/><path class="cls-1" d="M578.53,29.28c16.58,1.33,20.66,7.44,20.66,30.57,0,22.47-3.77,28.23-19.21,28.78l-20.76-.76v29.21l-17.66-.27V26.31ZM574.16,68c7.59.39,8.39-.47,8.39-9,0-9.23-.8-10.3-8.39-10.8l-14.94-1v20Z"/><path class="cls-1" d="M653.25,35.27V54.48l-31.74-2.07V65.54l28.85,1.59V85.32l-28.85-1.19V98.35l31.88,1v19.21l-48-.73V31.43Z"/><path class="cls-1" d="M686.31,120.27c-22.2-.31-27.89-8.9-27.89-43.13s5.69-42.27,27.89-40.46c21.43,1.74,26.63,9.08,26.5,36.85l-14.58-.77c.13-15.85-1.08-17.68-11.92-18.41C675.2,53.61,674,55.94,674,77.88s1.25,24.4,12.36,24.72c10.84.31,12.05-1.41,11.92-17.48l14.58.63C712.94,113.63,707.74,120.58,686.31,120.27Z"/><path class="cls-1" d="M730.5,59.53l-15.4-1V40.24l43.42,3.48V61.35l-14.81-1V119.9l-13.21-.2Z"/><path class="cls-1" d="M761.85,44l12.54,1v75.37l-12.54-.19Z"/><path class="cls-1" d="M809.44,120.91l-18.75-.29L777,45.21l13.37,1.07,10,55.59h.34L811.32,48l12.11,1Z"/><path class="cls-1" d="M862.88,121.72l-12.24-.18-2.17-13.79-15.75-.44-2.51,13.91L818,121l13.88-71.43,18.26,1.47Zm-17.1-29.46-4.86-26.44-.32,0-5,26Z"/><path class="cls-1" d="M311.5,163.19v24.33l-63.78,1.94v16.86l58-2.34V227l-58,3.17v18.27l64.07-4.19v24.33l-97.07,7.8V164.68Z"/><path class="cls-1" d="M324.52,163l54.67-.84c36.47-.56,45.3,9.11,45.3,48.35s-8.83,49.77-45.3,52.7l-54.67,4.4Zm28.82,50.93.14,27.65,22.82-1.5c18.46-1.2,20.51-4,20.51-28.24S394.76,185,376.3,185.55l-22.82.69Z"/><path class="cls-1" d="M474.18,257c-32.72,2.67-41.1-4.9-41.1-38.17V161.31l25.21-.39v56.56c0,18,1.65,19.81,15.89,18.85,14-.94,15.54-3,15.54-20.54V160.43l23.36-.36v54.46C513.08,246,505.49,254.46,474.18,257Z"/><path class="cls-1" d="M562.63,249.81c-33.32,2.71-41.93-6-41.93-43.93s8.61-47.47,41.93-47.95c31.77-.46,39.41,7,39.22,37.29l-21.51.92c.2-17.38-1.59-19.24-17.71-18.78-16.62.48-18.5,3.19-18.5,27.4s1.88,26.74,18.5,25.62c16.12-1.08,17.91-3.12,17.71-20.7l21.51-1.14C602,238.94,594.4,247.22,562.63,249.81Z"/><path class="cls-1" d="M682.3,238.81l-20.72,1.67-3.7-15.87-27,1.84-4.34,16.85L605.2,245l24.16-86.74,31.34-.48Zm-29-32L645,176.29l-.54,0-8.62,31.41Z"/><path class="cls-1" d="M694.83,175.85l-20.22.61V157.57l56.66-.87v18l-19.2.58v61.1l-17.24,1.38Z"/><path class="cls-1" d="M735.57,156.63l16.13-.25v76.85l-16.13,1.3Z"/><path class="cls-1" d="M796.33,229.64l-23.78,1.91L755.1,156.33l17.08-.27,12.67,55.35.43,0,13.43-55.73,15.24-.23Z"/><path class="cls-1" d="M863.05,224.27l-15.13,1.22-2.7-13.58-19.63,1.34-3.14,14.29-15.34,1.23,17.42-73.52,22.75-.35Zm-21.18-27.6-6-26h-.39l-6.25,26.7Z"/><path class="cls-2" d="M85.44,139.3c27.66-12.9,53.94-25.1,80.15-37.44,12.95-6.1,18.85-18.14,15.43-30.75-4.33-15.91-20.74-23.26-36.78-15.93C114.83,68.61,85.6,82.4,56.28,96c-12.89,6-25.77,12-38.71,17.85C6.34,119-.19,127.2,0,139.84c.2,12.26,6.8,20,17.68,25,41.75,19.27,83.39,38.76,125.11,58.07,15.64,7.24,30.69,2.48,36.88-11.41s-.06-28.19-15.6-35.47q-34.81-16.32-69.72-32.47C91.86,142.44,89.39,141.21,85.44,139.3Z"/><path class="cls-2" d="M983.93,139.3c-27.65-12.9-53.93-25.1-80.14-37.44-13-6.1-18.86-18.14-15.43-30.75,4.32-15.91,20.74-23.26,36.78-15.93,29.4,13.43,58.64,27.22,88,40.84,12.89,6,25.77,12,38.72,17.85,11.23,5.09,17.76,13.33,17.56,26-.19,12.26-6.8,20-17.67,25C1010,184.16,968.31,203.65,926.58,223c-15.64,7.24-30.69,2.48-36.88-11.41s.07-28.19,15.6-35.47q34.82-16.32,69.72-32.47C977.52,142.44,980,141.21,983.93,139.3Z"/></g></g></svg>