<svg width="47" height="74" viewBox="0 0 47 74" fill="none" xmlns="http://www.w3.org/2000/svg">
<path d="M22.2353 29.472C25.0042 29.472 27.711 28.6077 30.0133 26.9885C32.3156 25.3693 34.11 23.0678 35.1696 20.3752C36.2292 17.6825 36.5065 14.7196 35.9663 11.8611C35.4261 9.00264 34.0927 6.37694 32.1348 4.31607C30.1768 2.25521 27.6823 0.851745 24.9666 0.283154C22.2508 -0.285437 19.4359 0.0063851 16.8777 1.12172C14.3196 2.23705 12.1331 4.1258 10.5947 6.54911C9.05637 8.97243 8.23529 11.8215 8.23529 14.736C8.23529 18.6442 9.71029 22.3924 12.3358 25.1559C14.9613 27.9194 18.5223 29.472 22.2353 29.472V29.472ZM22.2353 6.62625C23.7653 6.62625 25.261 7.10381 26.5332 7.99854C27.8054 8.89327 28.7969 10.165 29.3824 11.6529C29.968 13.1408 30.1212 14.778 29.8227 16.3575C29.5242 17.937 28.7874 19.3879 27.7055 20.5267C26.6236 21.6655 25.2451 22.441 23.7445 22.7552C22.2439 23.0694 20.6884 22.9081 19.2748 22.2918C17.8613 21.6755 16.6531 20.6318 15.803 19.2928C14.953 17.9537 14.4993 16.3794 14.4993 14.7689C14.4993 12.6094 15.3143 10.5382 16.7651 9.01119C18.2159 7.48414 20.1836 6.62625 22.2353 6.62625Z" fill="#4BBFB2"/>
<path d="M23.0745 34.6995C18.971 34.5484 14.8806 35.2663 11.0499 36.8101C7.21914 38.3538 3.72733 40.6914 0.784848 43.682L0 44.5999V68.6296C0.0122086 69.3084 0.152887 69.9779 0.413935 70.5996C0.674984 71.2214 1.05124 71.7831 1.52105 72.2523C1.99085 72.7216 2.54491 73.0891 3.15132 73.3338C3.75773 73.5786 4.40451 73.6956 5.05442 73.6782H41.0632C41.7131 73.6956 42.3599 73.5786 42.9663 73.3338C43.5727 73.0891 44.1268 72.7216 44.5966 72.2523C45.0664 71.7831 45.4427 71.2214 45.7037 70.5996C45.9648 69.9779 46.1054 69.3084 46.1176 68.6296V44.5343L45.3328 43.6164C42.4006 40.6244 38.9136 38.29 35.0859 36.7566C31.2582 35.2232 27.1707 34.5232 23.0745 34.6995ZM39.8075 67.0888H6.21599V47.2225C10.9608 43.1724 16.9493 41.053 23.0745 41.256C29.1524 41.0427 35.0979 43.1394 39.8075 47.1569V67.0888Z" fill="#4BBFB2"/>
</svg>
